<svg xmlns="http://www.w3.org/2000/svg" xmlns:xlink="http://www.w3.org/1999/xlink" width="1440" height="1024" viewBox="0 0 1440 1024" style="background:#fff">
    <defs>
        <path id="prefix__a" d="M0 0H720V1024H0z"/>
    </defs>
    <g fill="none" fill-rule="evenodd">
        <g transform="translate(0 -109) translate(0 109)">
            <mask id="prefix__b" fill="#fff">
                <use xlink:href="#prefix__a"/>
            </mask>
            <use fill="#FFF" xlink:href="#prefix__a"/>
            <g mask="url(#prefix__b)">
                <g>
                    <g fill-opacity=".6">
                        <path fill="#C6FFEC" fill-rule="nonzero" d="M811.156 195.045c-33.455-20.838-43.384-65.863-44.512-104.474-.376-12.927-.447-26.73-7.55-38.09-8.68-13.887-25.609-20.08-40.966-20.974-27.996-1.626-55.041 11.367-70.403 33.874-13.255 19.425-17.905 44.684-31.746 63.673-23.166 31.774-66.827 39.4-107.218 38.606-28.576-.56-60.688-3.178-80.555 16.028-13.98 13.514-18.28 35.274-16.766 56.067.73 10.039 2.626 20.49-.26 29.746-1.716 5.502-5.028 10.19-8.656 14.458-33.112 38.958-92.684 47.04-123.486 88.025-20.794 27.676-24.91 66.743-18.36 103.42 6.549 36.677 22.726 71.651 39.728 105.582 12.083 24.113 26.028 49.463 48.928 62.996 24.22 14.311 54.11 11.814 76.553-1.033 22.443-12.847 38.397-34.66 50.682-57.913 15.352-29.065 26.832-62.398 52.81-81.565 17.689-13.056 40.115-17.934 61.28-24.637 35.375-11.21 68.326-28.073 100.909-45.246 31.19-16.44 62.452-33.354 88.886-56.613 18.706-16.46 30.14-37.905 46.67-56.082 10.772-11.847 24.885-19.288 34.112-32.698 11.394-16.53 18.096-40.367 4.731-60.324-12.674-18.976-37.054-21.768-54.811-32.826zM443.608 1353.007c-16.587-22.761-11.113-55.25-1.525-81.134 3.212-8.664 6.86-17.829 5.195-27.256-2.034-11.525-11.593-20.16-21.528-24.862-18.113-8.572-39.51-7.203-55.712 3.597-13.982 9.321-23.824 24.811-38.077 33.688-23.854 14.85-54.822 8.215-81.371-3.123-18.782-8.02-39.357-18.35-57.66-10.944-12.88 5.211-21.554 18.477-26.117 32.658-2.203 6.847-3.746 14.279-8.135 19.639-2.61 3.186-6.059 5.406-9.605 7.262-32.366 16.948-73.999 6.355-105.377 25.265-21.185 12.77-34.37 37.552-39.849 63.605-5.478 26.053-4.122 53.555-1.94 80.587 1.55 19.21 4.004 39.738 15.553 54.834 12.216 15.965 32.689 22.312 50.996 19.808 18.308-2.504 34.718-12.686 49.081-24.803 17.952-15.147 34.48-34.159 56.822-39.904 15.215-3.915 31.379-1.144 47.195.08 26.439 2.043 52.784-.309 78.968-2.965 25.066-2.542 50.306-5.381 74.045-13.715 16.8-5.898 30.117-17.045 45.933-24.663 10.309-4.966 21.65-6.119 31.354-12.533 11.973-7.902 22.794-21.901 19.282-38.7-3.318-15.965-18.723-24.342-27.528-36.421z" transform="translate(-182 -347) translate(.034)"/>
                    </g>
                    <path d="M902 347H1622V1371H902z" transform="translate(-182 -347)"/>
                    <g>
                        <path fill="#C6FFEC" fill-opacity=".6" fill-rule="nonzero" d="M727.15 875.628c-16.587-22.76-11.113-55.25-1.524-81.133 3.211-8.664 6.86-17.829 5.194-27.256-2.034-11.525-11.592-20.16-21.528-24.863-18.113-8.57-39.51-7.202-55.712 3.598-13.981 9.32-23.824 24.811-38.077 33.688-23.854 14.85-54.822 8.215-81.37-3.123-18.783-8.02-39.358-18.35-57.661-10.944-12.88 5.211-21.554 18.477-26.117 32.658-2.203 6.847-3.745 14.279-8.135 19.639-2.61 3.186-6.059 5.406-9.605 7.262-32.366 16.948-73.998 6.355-105.377 25.265-21.185 12.77-34.37 37.552-39.848 63.605-5.479 26.053-4.123 53.555-1.941 80.586 1.55 19.21 4.004 39.739 15.554 54.835 12.215 15.965 32.688 22.312 50.996 19.808 18.308-2.504 34.717-12.686 49.08-24.803 17.953-15.147 34.48-34.159 56.822-39.904 15.215-3.915 31.38-1.144 47.196.08 26.438 2.043 52.784-.309 78.968-2.965 25.066-2.542 50.305-5.381 74.045-13.715 16.8-5.898 30.116-17.045 45.933-24.664 10.308-4.965 21.65-6.118 31.353-12.532 11.974-7.902 22.795-21.901 19.282-38.7-3.317-15.966-18.723-24.342-27.527-36.422z" transform="translate(-182 -347)"/>
                        <path fill="#FFFFFE" d="M391.576 907.084L500.434 907.084 500.434 764.522 391.576 764.522z" transform="translate(-182 -347)"/>
                        <path fill="#A3ACBB" d="M383.883 917.25L508.127 917.25 508.127 907.084 383.883 907.084z" transform="translate(-182 -347)"/>
                        <path fill="#2AB184" d="M394.006 1074.457L388.704 1074.457 397.47 917.25 402.773 917.25 394.006 1074.457M498.004 1074.457L503.306 1074.457 494.54 917.25 489.237 917.25 498.004 1074.457" transform="translate(-182 -347)"/>
                        <path fill="#68C3A4" d="M408.409 836.456L423.884 809.354 435.321 823.274 457.074 791.238 479.114 836.456 408.409 836.456" transform="translate(-182 -347)"/>
                        <path fill="#68C3A4" d="M405.606 830.811L423.952 803.585 435.416 814.448 460.745 780.386 460.103 779.91 435.312 813.247 423.817 802.354 404.942 830.364 405.606 830.811" transform="translate(-182 -347)"/>
                        <path fill="#68C3A4" d="M457.646 783.869L453.73 780.949 461.738 778.382 461.561 786.789 457.646 783.869" transform="translate(-182 -347)"/>
                        <path fill="#F4F4F1" d="M410.474 787.123L434.742 787.123 434.742 784.85 410.474 784.85zM402.45 787.123L407.372 787.123 407.372 784.85 402.45 784.85zM419.533 793.373L434.742 793.373 434.742 791.1 419.533 791.1zM465.292 860.025L489.559 860.025 489.559 857.752 465.292 857.752zM457.269 860.025L462.19 860.025 462.19 857.752 457.269 857.752zM474.35 866.275L489.559 866.275 489.559 864.002 474.35 864.002zM472.893 889.606L483.463 889.606 483.463 887.334 472.893 887.334zM464.869 889.606L469.79 889.606 469.79 887.334 464.869 887.334zM475.103 895.857L483.463 895.857 483.463 893.583 475.103 893.583z" transform="translate(-182 -347)"/>
                        <path fill="#DD4557" d="M425.663 891.595c-9.486 0-17.179-7.686-17.179-17.178 0-9.487 7.693-17.18 17.18-17.18 6.528 0 12.209 3.649 15.118 9.007 1.314 2.43 2.06 5.215 2.06 8.173 0 9.492-7.692 17.178-17.179 17.178" transform="translate(-182 -347)"/>
                        <path fill="#B7B7B2" d="M425.663 874.417v-17.18c6.529 0 12.21 3.649 15.119 9.007l-15.119 8.173" transform="translate(-182 -347)"/>
                        <path fill="#423544" d="M442.842 874.417h-17.179l15.119-8.173c1.314 2.43 2.06 5.215 2.06 8.173" transform="translate(-182 -347)"/>
                        <path fill="#474A51" d="M440.782 870.73L454.494 870.73 458.744 885.174 459.511 884.949 455.092 869.93 440.782 869.93 440.782 870.73M433.552 862.241L439.41 853.75 467.113 853.75 467.113 852.95 438.99 852.95 432.894 861.786 433.552 862.241M425.29 887.713L428.51 896.183 462.546 896.183 462.546 895.384 429.061 895.383 426.037 887.429 425.29 887.713" transform="translate(-182 -347)"/>
                        <path fill="#3F9E6C" d="M737.532 1012.039c2.207 3.51 3.762 11.965 3.762 21.844 0 9.88-1.555 18.334-3.762 21.845-2.206-3.51-3.762-11.965-3.762-21.845 0-9.879 1.556-18.335 3.762-21.844" transform="translate(-182 -347)"/>
                        <path fill="#3F9E6C" d="M750.255 1016.268c1.353 3.918.952 12.506-1.287 22.128-2.24 9.622-5.671 17.504-8.615 20.424-1.354-3.92-.953-12.508 1.286-22.13 2.24-9.622 5.672-17.504 8.616-20.422M723.918 1016.239c3.025 3.104 6.659 11.469 9.138 21.672 2.48 10.203 3.09 19.302 1.827 23.449-3.024-3.104-6.66-11.47-9.138-21.672-2.48-10.204-3.09-19.304-1.827-23.45" transform="translate(-182 -347)"/>
                        <path fill="#4AB176" d="M741.955 1018.619c1.916 3.677 2.784 12.23 1.986 22.077-.798 9.847-3.031 18.148-5.514 21.468-1.916-3.676-2.784-12.23-1.986-22.076.798-9.847 3.032-18.15 5.514-21.47" transform="translate(-182 -347)"/>
                        <path fill="#4AB176" d="M732.006 1018.619c-1.915 3.677-2.783 12.23-1.986 22.077.799 9.847 3.032 18.148 5.515 21.468 1.915-3.676 2.783-12.23 1.985-22.076-.797-9.847-3.031-18.15-5.514-21.47" transform="translate(-182 -347)"/>
                        <path fill="#C2582D" d="M724.317 1059.016L750.733 1059.016 751.251 1052.454 723.798 1052.454 724.317 1059.016M727.767 1074.279L747.312 1074.279 748.528 1059.016 726.551 1059.016 727.767 1074.279" transform="translate(-182 -347)"/>
                        <path fill="#A14C2C" d="M748.303 1061.849L726.777 1061.849 726.551 1059.016 748.528 1059.016 748.303 1061.849" transform="translate(-182 -347)"/>
                        <path fill="#E98568" d="M502.785 867.767l18.739 23.176 13.405 6.857s-.542 7.847-8.787 9.383c-5.583 1.041-28.802-37.733-28.802-37.733l5.445-1.683M496.837 862.74c.382.118 2.304.494 2.351.505 0 0-2.3-3.314-1.072-3.705.542-.173 4.3 4.591 4.83 5.414.33.515-.161 2.813-.161 2.813l-5.445 1.683s-5.509-2.532-5.9-2.874c-.522-.46-3.494-4.231-3.124-4.575.369-.343 2.978 1.621 2.978 1.621s-3.701-3.607-2.872-4.473c.296-.311 3.564 1.881 3.564 1.881s-3.608-3.004-2.853-3.768c.427-.432 4.305 3.392 4.305 3.392s-2.684-3.158-2.104-3.512c.581-.353 4.548 5.304 5.503 5.598" transform="translate(-182 -347)"/>
                        <path fill="#2AB184" d="M541.512 847.26s-5.77-.7-7.522 3.424c-1.75 4.126-8.566 37.062-8.566 37.062s-3.674.768-3.9 3.197c0 0 9.39 9.046 14.626 8.518 5.237-.527 5.362-52.2 5.362-52.2" transform="translate(-182 -347)"/>
                        <path fill="#E98568" d="M555.73 954.686h-18.088s5.028 71.434 8.604 100.33h8.299s7.211-65.266 1.185-100.33" transform="translate(-182 -347)"/>
                        <path fill="#E98568" d="M568.131 952.797s.346 12.981 4.15 21.035c3.803 8.054 6.19 81.185 6.19 81.185h-8.297s-17.252-74.312-19.993-100.33l17.95-1.89" transform="translate(-182 -347)"/>
                        <path fill="#FFFEFB" d="M578.471 1055.017s1.807 1.633 2.881 4.379c1.075 2.746-4.416 13.488-5.133 14.563-.716 1.075-17.069 0-17.069 0s1.074-4.537 6.804-5.133l4.22-13.81h8.297" transform="translate(-182 -347)"/>
                        <path fill="#E98568" d="M578.471 1055.017s.016 1.753-1.893 5.453c-1.91 3.7-4.775 7.52-4.775 7.52s-1.113-.883-5.331-.86l3.702-12.113h8.297" transform="translate(-182 -347)"/>
                        <path fill="#FFFEFB" d="M581.491 1060.112s.1 13.728-.497 14.325c-.596.597-3.222-11.819-3.222-11.819l3.72-2.506M554.545 1055.017s1.806 1.633 2.88 4.379c1.075 2.746-4.416 13.488-5.132 14.563-.716 1.075-17.07 0-17.07 0s1.074-4.537 6.803-5.133l4.22-13.81h8.299" transform="translate(-182 -347)"/>
                        <path fill="#E98568" d="M554.545 1055.017s.016 1.753-1.895 5.453c-1.91 3.7-4.774 7.52-4.774 7.52s-1.113-.883-5.331-.86l3.701-12.113h8.299" transform="translate(-182 -347)"/>
                        <path fill="#FFFEFB" d="M557.565 1060.112s.099 13.728-.498 14.325c-.597.597-3.222-11.819-3.222-11.819l3.72-2.506" transform="translate(-182 -347)"/>
                        <path fill="#110E0D" d="M546.482 1055.34l-.1-.137.088.146.012-.009-.1-.137.088.146c.01-.006.296-.18 1.085-.18.45 0 1.063.057 1.875.238l.174-.78c-.86-.192-1.53-.258-2.049-.258-1.036-.002-1.471.27-1.545.325l.472.646M570.34 1055.382l.05-.023c.246-.107 1.382-.55 2.437-.546.476-.001.925.087 1.278.299l.41-.686c-.525-.313-1.119-.413-1.688-.413-1.44.005-2.793.632-2.819.64l.331.729M565.9 1069.222L569.442 1069.7 569.549 1068.907 566.007 1068.43M541.965 1069.221L545.022 1069.699 545.146 1068.909 542.088 1068.43" transform="translate(-182 -347)"/>
                        <path fill="#2AB184" d="M541.512 847.26s-5.32 12.69-6.691 15.172c-1.371 2.482 4.377 10.248 4.377 10.248l-2.284 42.337h38.626l-5.357-33.879s1.46-33.445 0-33.804c-2.631-.644-28.671-.073-28.671-.073" transform="translate(-182 -347)"/>
                        <path fill="#110E0D" d="M536.62 853.525s.082.304.206.824c.374 1.56 1.119 5.062 1.117 7.953.001.574-.029 1.123-.094 1.625l.594.078c.07-.535.1-1.109.1-1.703-.001-3.98-1.341-8.92-1.343-8.933l-.58.156" transform="translate(-182 -347)"/>
                        <path fill="#2AB184" d="M570.183 847.334c.633-1.092 7.883 2.812 8.288 7.655.406 4.843 2.02 29.625 2.02 29.625s2.69 3.448 2.51 5.476c-.18 2.027-.801 6.243-.801 6.243l-10.602-6.243s-10.023-27.896-1.415-42.756" transform="translate(-182 -347)"/>
                        <path fill="#110E0D" d="M571.626 888.346c0-.002-.09-.527-.226-1.486-.409-2.878-1.226-9.63-1.226-17.54 0-2.598.088-5.32.308-8.072l-.598-.048c-.222 2.77-.31 5.508-.31 8.12 0 10.6 1.459 19.116 1.46 19.126l.592-.1" transform="translate(-182 -347)"/>
                        <path fill="#32DDA4" d="M546.973 843.742s-3.487.62-4.616 1.156c-1.129.535-2.944 7.505-2.944 7.505l3.43 1.866s-1.476 1.565-2.332 3.413c-.857 1.848 6.795 18.896 10.957 19.67l-4.495-33.61M557.607 842.846s3.776.116 4.31.527c.533.41 2.148 7.944 2.148 7.944l-4.303 2.511 3.048 3.854s-2.412 17.461-11.342 19.67l6.14-34.506" transform="translate(-182 -347)"/>
                        <path fill="#FFFFFE" d="M547.166 847.26s.14 26.09 4.302 30.092l6.24-30.306-10.542.215" transform="translate(-182 -347)"/>
                        <path fill="#64302D" d="M554.807 811.026c-.033-.328-.033-.642.003-.928.508-4.044 3.308-7.952 7.204-9.179 3.39-1.067 8.785-2.055 11.742.605 1.44 1.294 2.106 3.24 2.48 5.14 1.03 5.243.26 10.674.806 15.99.232 2.267.78 4.652 2.406 6.25 1.626 1.596 4.62 1.956 6.076.202.347 1.828-.895 3.928-2.33 5.11-1.434 1.184-3.315 1.712-5.17 1.838-4.167.283-8.676-1.656-10.475-5.425-1.135-2.378-1.092-5.123-1.027-7.756.09-3.6.53-7.388.23-10.976-.255-3.048-2.99-3.119-4.708-.98-1.18 1.469-1.515 4.703-4.052 4.353-1.927-.267-3.006-2.503-3.185-4.244" transform="translate(-182 -347)"/>
                        <path fill="#14C489" d="M548.274 809.417s6.748-3.92 11.423-.911c4.675 3.008 2.577 10.95 2.577 10.95s-4.12-5.52-14-10.04" transform="translate(-182 -347)"/>
                        <path fill="#64302D" d="M559.018 834.142c3.174-2.177 5.272-5.815 5.028-9.876-.31-5.136-1.918-10.742-6.308-13.424-2.01-1.228-4.384-1.696-6.718-2.004-3.608-.476-7.39-.603-10.774.738-4.215 1.668-7.419 5.678-8.083 10.162-1.714 11.576 10.703 16.613 20.208 16.524 2.422-.022 4.73-.805 6.647-2.12" transform="translate(-182 -347)"/>
                        <path fill="#E98568" d="M557.326 831.208l.382 15.838c.173 3.183-1.856 5.968-4.626 6.356-3.2.447-6-2.46-5.916-6.141l.268-14.714 9.892-1.339" transform="translate(-182 -347)"/>
                        <path fill="#1F1715" d="M547.152 841.072c4.09-.126 8.462-6.214 8.462-6.214s2.094 12.188-8.448 12.403l-.014-6.189" transform="translate(-182 -347)"/>
                        <path fill="#DE7B5E" d="M538.99 827.175s-.844-2.184-3.008-1.598c-2.164.585-1.528 9.64 3.824 8.614l-.816-7.016" transform="translate(-182 -347)"/>
                        <path fill="#E98568" d="M537.316 827.283c.056 4.484 1.18 16.459 8.367 16.459 12.082 0 10.197-15.744 10.283-16.824.028-.36.056-.741.076-1.133.197-3.582-.323-9.161-6.816-10.702-4.632-1.095-10.91 3.694-11.83 9.527 0 0-.1 1.059-.08 2.673" transform="translate(-182 -347)"/>
                        <path fill="#110E0D" d="M540.51 829.34c-.012.622-.297 1.12-.637 1.114-.34-.007-.604-.517-.59-1.14.011-.622.298-1.12.636-1.114.34.007.604.518.591 1.14" transform="translate(-182 -347)"/>
                        <path fill="#E98568" d="M555.942 826.867s.77-2.211 2.95-1.701c2.183.508 1.865 9.58-3.52 8.742l.57-7.04" transform="translate(-182 -347)"/>
                        <path fill="#110E0D" d="M547.154 829.28c.024.62.319 1.114.659 1.102.338-.014.593-.53.57-1.15-.025-.622-.32-1.116-.659-1.102-.34.012-.594.527-.57 1.15" transform="translate(-182 -347)"/>
                        <path fill="#422C32" d="M558.564 826.974c-1.08.753-1.885 1.876-2.253 3.139l.768.223c.315-1.084 1.016-2.062 1.943-2.706l-.458-.656" transform="translate(-182 -347)"/>
                        <path fill="#321B18" d="M536.915 825.588s.826-1.211 2.65-1.036c1.824.176 2.073.913 1.901 1.142-.282.376-1.154.266-1.86-.044-1.053-.462-2.735.37-2.69-.062M550.76 825.909s-.768-1.247-2.598-1.157c-1.83.09-2.113.815-1.952 1.051.264.389 1.14.32 1.86.044 1.073-.413 2.714.495 2.69.062" transform="translate(-182 -347)"/>
                        <path fill="#DF7864" d="M536.911 833.818c-.034-.66 3.32-.741 3.347 0 .027.74-3.294 1.025-3.347 0M552.509 833.889c.034-.66-3.321-.74-3.347 0-.028.74 3.293 1.025 3.347 0" transform="translate(-182 -347)"/>
                        <path fill="#64302D" d="M536.915 825.588c5.56-.816 14.43-5.196 15.595-5.706-.124 1.295.641 8.247 3.396 7.42.941-.283 5.35-7.419-.986-12.282-2.962-2.274-6.92-3.238-10.467-2.068-3.547 1.17-8.725 4.792-10.417 8.122.097-.196-.874 5.064 2.88 4.514" transform="translate(-182 -347)"/>
                        <path fill="#121925" d="M544.522 831.218c-.004 0-.053-.002-.138-.002-.231 0-.714.01-1.2.092-.245.042-.49.102-.718.2-.223.098-.447.234-.59.489v-.001c-.054.1-.08.212-.078.313.003.205.077.361.164.505.156.248.38.472.634.699.76.67 1.81 1.305 1.82 1.313l.416-.684-.1-.061c-.224-.142-.797-.512-1.298-.911-.252-.199-.484-.406-.64-.581-.078-.087-.136-.167-.167-.222l-.028-.06-.002-.008-.057.01h.058l-.001-.01-.057.01h.058-.15l.13.071.02-.071h-.15l.13.071c.002-.012.066-.08.206-.138.206-.09.536-.156.845-.188.31-.032.601-.038.755-.038h.114l.024-.798" transform="translate(-182 -347)"/>
                        <path fill="#F6FBFA" d="M538.155 835.104c.149 2.433 1.467 8.885 5.607 8.892h.007c.091 0 .177 0 .268-.007 4.971-.318 11.698-1.615 11.761-7.108.036-2.962-10.542-7.08-12.318-7.08-1.778.007-5.14 3.286-5.318 4.534-.02.155-.02.416-.007.769" transform="translate(-182 -347)"/>
                        <path fill="#7AC5B4" d="M538.155 835.104c.149 2.433 1.467 8.885 5.607 8.892h.007c9.321-1.466 11.106-5.31 10.845-7.094-.254-1.784-9.97-6.163-11.416-6.163-1.382.007-4.824 4.111-5.043 4.365" transform="translate(-182 -347)"/>
                        <path fill="#F6FBFA" d="M550.587 833.293l7.423-7.93c.15-.162.143-.415-.019-.566-.16-.15-.414-.143-.565.019l-7.423 7.93c-.151.161-.142.414.019.565.161.151.414.143.565-.018M558.454 832.434l-4.158 6.807c-.115.189-.055.435.133.55.189.115.435.055.55-.133l4.158-6.808c.115-.188.055-.434-.133-.55-.189-.114-.435-.055-.55.134" transform="translate(-182 -347)"/>
                        <path fill="#526E65" d="M536.914 915.017l-2.924 61.155h46.86s.787-33.193 0-41.674c-.788-8.481-5.31-19.481-5.31-19.481h-38.626" transform="translate(-182 -347)"/>
                        <path fill="#110E0D" d="M558.346 999.474c-.001-.003-3.312-18.038-4.55-23.37l-.583.136c.613 2.645 1.751 8.486 2.733 13.66.49 2.586.943 5.007 1.273 6.782.33 1.774.536 2.898.537 2.901l.59-.109M534.61 969.722L580.986 969.722 580.986 969.122 534.61 969.122zM547.588 915.002c0 .004-.865 19.032-.865 27.153 0 .89.01 1.649.034 2.241.025.596.056 1.011.117 1.269.319 1.275 1.436 2.441 2.457 3.328 1.026.882 1.971 1.465 1.98 1.471l.423.262 2.41-35.69-.598-.04-2.377 35.192.299.02.158-.254c0-.001-.055-.034-.156-.1-.353-.23-1.254-.848-2.118-1.646-.866-.795-1.682-1.786-1.895-2.685-.04-.157-.08-.574-.1-1.15-.023-.58-.034-1.333-.034-2.218 0-4.044.216-10.829.432-16.597.108-2.886.216-5.518.297-7.428.082-1.91.135-3.097.135-3.1l-.599-.027" transform="translate(-182 -347)"/>
                        <path fill="#110E0D" d="M536.786 917.975L576.557 917.975 576.557 917.375 536.786 917.375z" transform="translate(-182 -347)"/>
                        <path fill="#EAEFF1" d="M565.186 861.306L567.376 906.21 536.873 906.117 534.929 860.404 565.186 861.306" transform="translate(-182 -347)"/>
                        <path fill="#F9CE8D" d="M566.631 864.749L565.179 908.822 535.728 908.51 537.877 862.502 566.631 864.749" transform="translate(-182 -347)"/>
                        <path fill="#E98568" d="M576.78 890.127l-33.496-10.64-2.185 4.713s30.503 19.02 37.184 16.209c6.681-2.811 3.987-8.328-1.504-10.282M543.284 879.486s-2.067-4.697-2.304-5.08c-.237-.381-3.066-3.02-3.282-2.828-.935.83.833 2.672.833 2.672s-2.789-.181-2.91.117c-.12.298.125 1.367.125 1.367s-1.28.924-1.058 1.252c.224.328.53.976.53.976s-1.03.841-.879 1.2c.151.359 1.839 4.198 6.76 5.038l2.185-4.714" transform="translate(-182 -347)"/>
                        <path fill="#110E0D" d="M580.194 884.571c-.019-.005-1.87-.68-4.152-.682-.17 0-.342.004-.516.012l.028.599c.164-.008.327-.011.488-.011 1.082 0 2.074.162 2.792.325.36.081.65.162.85.223.1.03.178.055.23.072l.075.026.205-.564M525.354 888.038c.001 0 .218.052.59.154 1.11.305 3.58 1.064 5.42 2.155l.307-.516c-2.576-1.522-6.164-2.372-6.177-2.377l-.14.584" transform="translate(-182 -347)"/>
                        <path fill="#FFFFFE" d="M710.429 932c-.553-4.424-11.355-10.203-11.355-10.203s-13.518 67.614-29.279 68.236c-17.674.697-33.17-.12-40.646.245 0 0-7.883-.59-8.574 2.728-.691 3.318.91 5.475 9.235 5.641l48.598 4.107c11.918 1.936 15.444-6.983 15.444-6.983 7.88-23.365 17.13-59.346 16.577-63.77" transform="translate(-182 -347)"/>
                        <path fill="#C1FFEA" d="M600.922 1074.362l18.724-67.76c1.047-3.793 4.499-6.379 8.372-6.378.245 0 .492.01.74.031l50.705 4.286c3.675.31 6.756 2.908 7.683 6.48l.004.017 17.997 63.33c.12.425.563.671.988.55.425-.12.671-.563.55-.988l-17.995-63.33-.77.22.774-.202c-1.097-4.228-4.744-7.304-9.096-7.672l-50.706-4.285c-.292-.025-.584-.037-.874-.037-4.59 0-8.672 3.06-9.915 7.552l-18.722 67.76c-.119.426.132.866.557.984.426.118.867-.132.984-.558" transform="translate(-182 -347)"/>
                        <path fill="#939490" d="M668.762 882.103s4.57-2.9 6.843-3.319c2.274-.418 9.801-.402 9.801-.402L672.94 891.22l-4.178-9.117" transform="translate(-182 -347)"/>
                        <path fill="#A85E51" d="M661.305 910.95l-11.395-3.866-16.767 17.092-36.825 4.404 2.748 6.167s38.101.208 42.81-1.154c2.771-.801 19.429-22.643 19.429-22.643" transform="translate(-182 -347)"/>
                        <path fill="#B86758" d="M679.515 866.563l3.34 17.375c.733 3.188-1.141 6.395-4.278 7.318-3.624 1.067-7.349-1.336-7.87-5.076l-2.4-16.363 11.208-3.254" transform="translate(-182 -347)"/>
                        <path fill="#1F1715" d="M669.415 878.494c4.705-.912 8.734-7.91 8.734-7.91s4.705 13.354-7.442 15.596l-1.292-7.686" transform="translate(-182 -347)"/>
                        <path fill="#321B18" d="M682.51 865.097l-24.118 3.325s-8.612-4.858-8.389-6.439c.224-1.579 3.438-2.598 3.438-2.598s-6.15-9.59-5.125-11.124c1.025-1.534 5.402 1.207 5.402 1.207s8.234-7.382 14.59-8.082c3.375-.37 8.02 3.795 8.02 3.795s3.718-1.418 5.243-1.181c1.525.235.94 21.097.94 21.097" transform="translate(-182 -347)"/>
                        <path fill="#A65D4F" d="M659.362 868.978c-1.384.512-3.218.137-4.29-.892-1.073-1.03-1.572-2.71-1.265-4.256.276-1.386 1.244-2.664 2.515-3.008 1.27-.344 2.902.457 3.233 1.812l-.193 6.344" transform="translate(-182 -347)"/>
                        <path fill="#B86758" d="M669.165 849.47c.929.021 1.873.186 2.818.515 8.458 2.94 9.783 15.591 6.806 22.945-1.647 4.07-5.31 7.294-9.66 7.608-6.36.46-10.885-4.903-12.302-10.88-1.055-4.454-.568-9.342 1.667-13.275 2.234-3.926 6.278-7.015 10.67-6.913" transform="translate(-182 -347)"/>
                        <path fill="#321B18" d="M664.76 860.314c-.038.397 2.147.925 3.458 1.047 1.312.122 1.794-.159 1.83-.556.038-.397-1.535-.868-2.846-.99-1.312-.122-2.405.102-2.443.499M661.829 860.502c.053.397-2.111 1.007-3.416 1.179-1.307.171-1.798-.09-1.85-.486-.052-.396 1.502-.927 2.807-1.098 1.307-.171 2.408.01 2.459.405" transform="translate(-182 -347)"/>
                        <path fill="#121925" d="M662.612 864.877l-.008.137c-.02.316-.091 1.133-.282 1.936-.095.402-.22.799-.376 1.121-.153.323-.339.563-.513.675-.153.103-.28.216-.375.355-.096.137-.154.306-.153.474.002.297.157.528.335.699.272.257.64.437 1.048.573.409.133.858.212 1.291.213.167 0 .33-.012.49-.04l-.136-.788c-.107.018-.227.028-.354.028-.442.002-.971-.118-1.354-.294-.191-.085-.345-.186-.431-.27l-.08-.098-.01-.023h-.002l.003.001h-.003.003c0-.004.031-.071.17-.162.407-.276.669-.704.871-1.17.3-.704.46-1.526.552-2.182.092-.656.113-1.143.113-1.152l-.799-.033" transform="translate(-182 -347)"/>
                        <path fill="#B86758" d="M679.272 870.605c1.452.259 3.192-.434 4.066-1.636.873-1.203 1.068-2.946.492-4.412-.515-1.315-1.694-2.402-3.005-2.517-1.31-.115-2.776.962-2.864 2.354l1.311 6.21" transform="translate(-182 -347)"/>
                        <path fill="#121925" d="M679.962 867.535l.003-.016c.015-.102.118-.653.428-1.215.313-.566.806-1.126 1.632-1.357l-.215-.77c-1.16.322-1.83 1.16-2.19 1.878-.364.723-.446 1.347-.451 1.375l.793.105" transform="translate(-182 -347)"/>
                        <path fill="#110E0D" d="M660.04 865.68c.043.686-.225 1.26-.6 1.285-.374.023-.712-.514-.756-1.2-.042-.687.226-1.263.6-1.286.374-.024.712.514.756 1.2M668.266 864.758c.044.686-.224 1.261-.599 1.285-.374.023-.713-.513-.756-1.2-.043-.686.225-1.262.6-1.285.374-.024.712.513.755 1.2" transform="translate(-182 -347)"/>
                        <path fill="#321B18" d="M658.392 852.883s3 5.259 7.691 5.417c4.69.158 10.01-1.727 10.01-1.727s-1.772 8.425.332 8.841c2.104.416 5.153-4.344 5.153-4.344s-4.976-14.262-9.238-13.72c-4.26.542-13.948 5.533-13.948 5.533" transform="translate(-182 -347)"/>
                        <path fill="#F6FBFA" d="M658.353 874.278c.559 2.436 2.977 8.741 7.165 8.053l.008-.001c.092-.016.179-.03.27-.052 4.976-1.157 11.563-3.6 10.705-9.168-.463-3.002-11.855-5.39-13.652-5.092-1.798.306-4.649 4.188-4.618 5.48.005.161.049.425.122.78" transform="translate(-182 -347)"/>
                        <path fill="#7AC5B4" d="M658.353 874.278c.559 2.436 2.977 8.741 7.165 8.053l.008-.001c9.184-3.05 10.344-7.238 9.78-8.999-.556-1.762-11.123-4.56-12.586-4.317-1.397.24-4.188 4.97-4.367 5.264" transform="translate(-182 -347)"/>
                        <path fill="#FFFFFE" d="M681.14 870.183l-5.593 5.507c-.117.116-.119.306-.003.424.116.119.306.12.424.004l5.594-5.507c.118-.116.12-.306.004-.424-.117-.118-.307-.12-.425-.004" transform="translate(-182 -347)"/>
                        <path fill="#ED9A7F" d="M589.127 1049.532L586.753 1070.646 598.721 1070.646 600.118 1050.227 589.127 1049.532" transform="translate(-182 -347)"/>
                        <path fill="#321B18" d="M593.353 1068.493c3.322.037 5.89-5.475 5.89-5.475s1.519-.198 1.462 2.999c-.022 1.23-.588 5.919-.588 5.919H565.93s.246-5.042 3.566-5.534 14.598.164 15.31-5.903c0 0 4.699-.901 6.01 0 1.312.903-1.075 7.952 2.537 7.994" transform="translate(-182 -347)"/>
                        <path fill="#FFFDFD" d="M565.93 1074.15L600.117 1074.15 600.117 1071.936 565.93 1071.936z" transform="translate(-182 -347)"/>
                        <path fill="#ED9A7F" d="M552.942 1048.375L537.887 1063.366 547.227 1070.85 561.084 1055.789 552.942 1048.375" transform="translate(-182 -347)"/>
                        <path fill="#321B18" d="M544.384 1065.814c2.569 2.106 8.02-.59 8.02-.59s1.31.795-.734 3.255c-.787.946-4.16 4.25-4.16 4.25l-26.68-21.375s3.344-3.781 6.244-2.09c2.898 1.693 11.29 9.257 15.639 4.967 0 0 4.23 2.235 4.69 3.759.46 1.524-5.813 5.532-3.019 7.824" transform="translate(-182 -347)"/>
                        <path fill="#FFFDFD" d="M547.51 1072.73L520.83 1051.354 519.446 1053.082 546.125 1074.457 547.51 1072.73" transform="translate(-182 -347)"/>
                        <path fill="#5B7192" d="M602.618 984.138L548.626 1052.673 559.571 1062.906 615.751 999.423 602.618 984.138" transform="translate(-182 -347)"/>
                        <path fill="#EAEFF1" d="M687.569 881.531s12.025 6.939 15.613 10.212c3.587 3.274-11.206 77.01-11.206 77.01H649.91s6.637-35.353 7.354-40.016c.718-4.663 1.737-32.581 2.78-38.21.338-1.817 9.177-4.347 9.177-4.347l3.719 3.506 14.629-8.155" transform="translate(-182 -347)"/>
                        <path fill="#110E0D" d="M691.678 918.211c0 .001-.056.498-.16 1.394-.718 6.27-3.722 32.039-5.695 42.754l.59.109c2.263-12.296 5.86-44.186 5.86-44.19l-.595-.067" transform="translate(-182 -347)"/>
                        <path fill="#5D7596" d="M691.976 968.753H649.91s-44.422 7.574-48.576 9.978c-7.972 4.613-13.104 78.784-13.104 78.784l14.099.297 14.244-61.958s57.142.753 64.342 0c7.2-.753 9.583-19.57 11.061-27.101" transform="translate(-182 -347)"/>
                        <path fill="#110E0D" d="M616.863 995.93L618.274 990.513 617.694 990.362 616.282 995.778" transform="translate(-182 -347)"/>
                        <path fill="#110E0D" d="M687.936 968.725s-.029.296-.09.823c-.215 1.846-.836 6.504-2.046 10.957-.605 2.225-1.358 4.4-2.272 6.137-.913 1.74-1.991 3.024-3.182 3.519-.742.314-2.332.617-4.488.873-7.564.904-22.221 1.358-34.972 1.584-6.376.114-12.279.17-16.587.199-2.153.014-3.91.021-5.126.025-1.217.004-1.893.004-1.895.004v.6c.001 0 14.184 0 29.177-.34 7.497-.168 15.195-.423 21.428-.804 3.117-.19 5.867-.412 8.046-.673 2.181-.263 3.777-.552 4.649-.915 1.607-.682 2.85-2.412 3.875-4.588 1.53-3.27 2.544-7.596 3.183-11.115.638-3.517.897-6.224.897-6.23l-.597-.056" transform="translate(-182 -347)"/>
                        <path fill="#6580A5" d="M588.23 1057.515L602.329 1057.812 603.814 1051.354 588.698 1051.354 588.23 1057.515M548.626 1052.673L559.571 1062.906 564.099 1057.789 552.817 1047.353 548.626 1052.673" transform="translate(-182 -347)"/>
                        <path fill="#B9B9B4" d="M672.94 896.593L680.195 889.563 674.308 884.895 672.94 889.686 672.94 896.593M672.94 896.593L672.94 889.686 671.139 884.895 668.869 888.183 672.94 896.593" transform="translate(-182 -347)"/>
                        <path fill="#FFFFFE" d="M689.917 882.103L685.406 878.382 674.308 884.895 681.41 890.526 689.917 882.103M671.139 884.895L668.762 882.103 665.411 886.648 667.831 889.686 671.139 884.895" transform="translate(-182 -347)"/>
                        <path fill="#EAEFF1" d="M662.653 888.56c-5.407.933-27.383 30.93-27.383 30.93l11.536 13.485s11.773-13.535 15.903-18.796c4.13-5.262 6.092-26.681-.056-25.62" transform="translate(-182 -347)"/>
                        <path fill="#B86758" d="M693.597 906.08l-13.543 1.748-4.63 16.348-36.825 4.404 2.749 6.167s38.1.208 42.81-1.154c2.77-.801 9.439-27.512 9.439-27.512" transform="translate(-182 -347)"/>
                        <path fill="#B86758" d="M638.6 928.58s-5.952-1.18-7.61-1.37c-1.656-.19-7.755 5.287-7.128 5.804.626.516 2.661.746 3.445.535.784-.211 3.901-2.698 3.901-2.698s5.113 4.966 10.14 3.896l-2.749-6.167" transform="translate(-182 -347)"/>
                        <path fill="#FFFFFE" d="M670.624 870.102s.356-.468.914-1.185c.835-1.075 2.121-2.703 3.326-4.127.602-.712 1.184-1.372 1.675-1.884.486-.51.907-.878 1.094-.97.577-.298 1.05-.436 1.456-.435.528.002.986.219 1.524.751.117.117.307.117.424 0 .117-.118.117-.307 0-.424-.595-.6-1.232-.93-1.948-.927-.543 0-1.106.18-1.731.503-.227.12-.473.326-.774.61-1.038.986-2.637 2.908-3.99 4.596-1.35 1.685-2.447 3.128-2.448 3.13-.1.132-.074.32.058.42.132.1.32.074.42-.058" transform="translate(-182 -347)"/>
                        <path fill="#EAEFF1" d="M688.234 888.924c-3.31-.4-8.46 6.584-9.188 7.669-.73 1.085-4.738 23.826-4.738 23.826l19.289 3.327s4.331-21.23 4.331-25.204-5.054-9.056-9.694-9.618" transform="translate(-182 -347)"/>
                        <path fill="#110E0D" d="M657.87 920.442c0-.004.662-8.836.662-19.73v-.524h-.6v.525c0 5.435-.166 10.357-.33 13.92-.084 1.781-.166 3.223-.228 4.219-.062.996-.103 1.543-.103 1.545l.599.045M687.497 891.766c-.011.002-.972.226-2.09.71-1.117.487-2.401 1.218-3.046 2.326-.167.293-.4.876-.71 1.717-2.151 5.856-7.629 23.809-7.63 23.813l-.099.323 19.142 3.438.056-.29c0-.004 2.63-13.627 2.992-15.853l-.593-.096c-.177 1.095-.925 5.06-1.628 8.743-.351 1.841-.691 3.615-.943 4.927l-.417 2.165.295.057.053-.296-18.518-3.326-.053.295.286.088c.002-.004.448-1.465 1.137-3.696 1.034-3.345 2.61-8.411 4.038-12.826.713-2.208 1.389-4.254 1.94-5.84.275-.791.519-1.469.72-1.993.2-.52.362-.897.452-1.051.51-.901 1.697-1.617 2.764-2.075.533-.23 1.033-.4 1.397-.512.183-.056.332-.097.435-.124.102-.028.156-.04.156-.04l-.136-.584M675.202 924.377L677.738 927.191 678.184 926.79 675.647 923.975M632.946 924.402L635.074 926.244 635.466 925.79 633.339 923.949M650.918 962.714L693.222 962.714 693.222 962.114 650.918 962.114z" transform="translate(-182 -347)"/>
                        <path fill="#8E9BAF" d="M470.213 936.547h-23.716c-.9 0-1.63-.73-1.63-1.63 0-.9.73-1.63 1.63-1.63h23.716c.899 0 1.629.73 1.629 1.63 0 .9-.73 1.63-1.63 1.63M490.955 916.035H429.5c-1.134 0-2.054-.919-2.054-2.053v-41.225c0-1.135.92-2.055 2.054-2.055h61.455c1.135 0 2.055.92 2.055 2.055v41.225c0 1.134-.92 2.053-2.055 2.053" transform="translate(-182 -347)"/>
                        <path fill="#D5DEE9" d="M496.382 872.756v41.226c0 1.135-.923 2.057-2.058 2.057h-61.457c-1.135 0-2.045-.922-2.045-2.057v-41.226c0-1.135.91-2.057 2.045-2.057h61.457c1.135 0 2.058.922 2.058 2.057" transform="translate(-182 -347)"/>
                        <path fill="#616773" d="M478.117 909.194h-29.035c-2.38 0-4.308 1.928-4.308 4.308v2.623h37.65v-2.623c0-2.38-1.928-4.308-4.307-4.308" transform="translate(-182 -347)"/>
                        <path fill="#8E9BAF" d="M467.954 933.287L457.278 933.287 457.278 899.912 467.954 899.912 467.94 922.765 467.954 933.287" transform="translate(-182 -347)"/>
                        <path fill="#EAEFF4" d="M469.922 933.287L459.244 933.287 459.244 899.912 469.922 899.912 469.907 922.765 469.922 933.287" transform="translate(-182 -347)"/>
                        <path fill="#D5DEE9" d="M475.55 936.547h-23.715c-.9 0-1.63-.73-1.63-1.63 0-.9.73-1.63 1.63-1.63h23.715c.9 0 1.63.73 1.63 1.63 0 .9-.73 1.63-1.63 1.63" transform="translate(-182 -347)"/>
                        <path fill="#332D3A" d="M451.002 914.251L453.671 914.251 453.671 909.194 451.002 909.194z" transform="translate(-182 -347)"/>
                        <path fill="#FFFFFE" d="M451.937 914.251v6.383c0 2.852 2.313 5.165 5.165 5.165h4.448c1.207 0 2.296.488 3.087 1.279.791.79 1.278 1.88 1.279 3.087v6.382h.8v-6.382c0-2.853-2.313-5.166-5.166-5.166h-4.448c-1.207 0-2.296-.488-3.087-1.278-.79-.791-1.278-1.88-1.278-3.087v-6.383h-.8" transform="translate(-182 -347)"/>
                        <path fill="#CE7D60" d="M404.934 881.654s7.955-.045 12.916-2.023l-2.753-6.429s-5.231-.601-6.906.595c-1.673 1.196-3.257 7.857-3.257 7.857" transform="translate(-182 -347)"/>
                        <path fill="#CE7D60" d="M410.332 872.213s9.668-3.493 10.266-2.524c.597.97-2.208 3.44-10.432 6.151l.166-3.627" transform="translate(-182 -347)"/>
                        <path fill="#E29477" d="M351.606 861.224l12.425 20.965 39.707-7 1.196 6.465s-44.968 14.846-47.36 14.678c-2.392-.17-17.565-27.35-17.565-27.35l11.597-7.758" transform="translate(-182 -347)"/>
                        <path fill="#2AB184" d="M344.6 842.45l18.242 31.832-13.804 7.907s-10.552-17.723-4.437-39.74" transform="translate(-182 -347)"/>
                        <path fill="#433B30" d="M350.339 915.587L366.163 1065.154 350.4 1067.507 327.976 946.753 329.174 915.587 350.339 915.587" transform="translate(-182 -347)"/>
                        <path fill="#433B30" d="M308.07 915.587s-.806 7.251-2.316 15.402c-1.51 8.151 7.338 136.518 7.338 136.518l15.842-2.353s3.48-99.128 4.999-109.522c1.519-10.394 13.713-40.045 13.713-40.045H308.07" transform="translate(-182 -347)"/>
                        <path fill="#110E0D" d="M307.448 920.749L350.854 920.749 350.854 920.149 307.448 920.149z" transform="translate(-182 -347)"/>
                        <path fill="#959692" d="M326.474 831.606s6.91.275 8.841.633c1.931.359 8.907 3.498 8.907 3.498l-3.03 7.031-14.908-10.809" transform="translate(-182 -347)"/>
                        <path fill="#61FFCA" d="M325.766 835.096s-8.37 6.478-11.717 10.002c-3.349 3.523-6.935 63.55-7.653 65.224-.718 1.674 1.674 5.265 1.674 5.265h42.27s-3.372-61.74-3.45-64.832c-.078-3.09-2.218-9.977-2.218-9.977l-18.906-5.682" transform="translate(-182 -347)"/>
                        <path fill="#110E0D" d="M306.396 910.289L349.505 910.289 349.505 909.689 306.396 909.689z" transform="translate(-182 -347)"/>
                        <path fill="#64302D" d="M330.783 829.19s-3.697.968-4.702-4.593c-1.006-5.562-2.501-21.824-.36-23.223 2.142-1.399 5.173.816 5.173.816s1.403-2.915 6.12-3.03c3.183-.08 9.096 3.263 15.712-1.983 0 0 10.964 15.796-6.784 19.807-15.805 3.572-15.159 12.206-15.159 12.206" transform="translate(-182 -347)"/>
                        <path fill="#E29477" d="M347.65 819.978c.088 1.484 1.35 2.548 2.82 2.377 1.47-.17 2.59-1.51 2.503-2.993-.088-1.484-1.35-2.548-2.821-2.378-1.47.17-2.59 1.511-2.502 2.994" transform="translate(-182 -347)"/>
                        <path fill="#ED9E81" d="M331.8 820.089l-1.651 14.783s6.121 6.694 11.042 7.896c0 0 1.197-2.369 1.05-3.68l.871-13.456-11.312-5.543" transform="translate(-182 -347)"/>
                        <path fill="#1F1715" d="M343.112 825.632l-.802 12.398s-11.155-.23-7.884-13.281l8.686.883" transform="translate(-182 -347)"/>
                        <path fill="#ED9E81" d="M345.88 808.125c2.078.193 3.831 1.658 4.34 3.68.622 2.473.935 6.66-.01 13.706-.572 4.26-4.61 8.583-9.744 7.475-9.915-2.14-8.661-26.167-8.661-26.167l14.076 1.306" transform="translate(-182 -347)"/>
                        <path fill="#110E0D" d="M343.966 820.702c0 .003.024.755.101 1.534.039.39.09.786.163 1.11.036.162.077.306.132.432.061.121.116.254.315.34.16.056.344.079.565.108.328.04.717.079 1.01.142.145.03.266.069.326.1l.032.02.008.006.072-.075-.099.01.027.065.072-.075-.099.01.001.025c.005.128-.088.446-.317.69-.23.25-.575.457-1.146.46l-.095-.002-.025.6.12.002c.727.002 1.263-.291 1.59-.655.329-.368.469-.775.473-1.095l-.003-.084c-.015-.153-.107-.273-.195-.344-.159-.124-.335-.176-.532-.226-.294-.07-.635-.109-.938-.145-.298-.033-.574-.073-.642-.101l-.057.156.105-.13-.048-.026-.057.156.105-.13-.042.052.053-.042-.01-.01-.043.052.053-.042c-.005-.002-.041-.068-.07-.166-.113-.348-.197-1.053-.243-1.646-.047-.598-.062-1.095-.063-1.096l-.6.02" transform="translate(-182 -347)"/>
                        <path fill="#FFFFFE" d="M328.922 821.597c.007.018.59 1.88 1.763 3.768.588.943 1.324 1.896 2.227 2.627.9.729 1.986 1.238 3.23 1.238.178 0 .358-.01.541-.032l-.093-.795c-.152.018-.301.027-.448.027-1.02-.001-1.921-.412-2.728-1.06-1.206-.972-2.153-2.48-2.783-3.745-.315-.632-.553-1.203-.711-1.613-.08-.206-.138-.371-.178-.484l-.057-.171-.763.24" transform="translate(-182 -347)"/>
                        <path fill="#64302D" d="M346.47 815.426c.016.515 2.178.86 3.452.818 1.273-.043 1.699-.475 1.683-.99-.015-.515-1.584-.88-2.858-.837-1.273.042-2.293.494-2.277 1.01" transform="translate(-182 -347)"/>
                        <path fill="#1F1715" d="M346.891 819.854c.023.73.324 1.312.671 1.301.348-.011.61-.611.587-1.34-.023-.731-.323-1.313-.67-1.301-.348.01-.611.61-.588 1.34" transform="translate(-182 -347)"/>
                        <path fill="#64302D" d="M341.406 815.608c.016.514-2.122 1.005-3.396 1.047-1.272.043-1.724-.36-1.74-.875-.015-.514 1.53-.984 2.802-1.027 1.274-.043 2.318.34 2.334.855" transform="translate(-182 -347)"/>
                        <path fill="#1F1715" d="M341.268 820.042c.023.728-.24 1.33-.587 1.34-.347.012-.647-.57-.67-1.3-.024-.73.24-1.33.587-1.341.347-.011.647.571.67 1.3" transform="translate(-182 -347)"/>
                        <path fill="#ED9E81" d="M332.651 819.978c-.088 1.484-1.351 2.548-2.82 2.377-1.47-.17-2.591-1.51-2.503-2.993.088-1.484 1.351-2.548 2.82-2.378 1.47.17 2.591 1.511 2.503 2.994" transform="translate(-182 -347)"/>
                        <path fill="#110E0D" d="M328.295 819.625c0-.001.044-.043.123-.109.119-.1.313-.252.524-.374.212-.124.442-.212.61-.21l.123.017c.076.017.235.149.383.35.23.3.461.731.63 1.085.171.354.28.626.282.627l.37-.15c0-.003-.203-.505-.486-1.037-.143-.266-.304-.54-.477-.767-.176-.226-.35-.414-.585-.49-.08-.025-.16-.036-.24-.036-.386.005-.75.215-1.04.41-.286.197-.488.39-.493.394l.276.29" transform="translate(-182 -347)"/>
                        <path fill="#64302D" d="M352.57 809.194c-1.148 6.152-13.408 5.387-14.17 4.522-.868-.985.374-3.026.53-3.294-1.34 1.38-3.286 3.122-6.365 2.038.287 2.124.817 6.98-.566 7.233-2.255.411-2.548-6.663-2.242-8.987.119-.91-.382-7.742 8.999-8.712 11.26-1.163 14.794 1.947 13.814 7.2" transform="translate(-182 -347)"/>
                        <path fill="#D87061" d="M344.607 829.155c-.94.093-1.85-.113-2.665-.59-.388-.225-.777.353-.39.58.99.578 2.06.805 3.198.693.447-.044.3-.726-.143-.683" transform="translate(-182 -347)"/>
                        <path fill="#FFFFFE" d="M326.474 831.606L340.352 838.348 336.172 842.768 323.91 836.37 326.474 831.606M329.586 817.066l.004-.008c.021-.058.153-.377.399-.662.25-.288.584-.53 1.055-.53.175 0 .374.033.605.119.153.054.429.24.745.522 1.123.99 2.839 3.105 4.256 4.959.708.928 1.346 1.792 1.807 2.424.46.632.74 1.03.741 1.032.096.136.283.168.418.072.136-.096.168-.283.073-.418-.003-.002-1.483-2.1-3.19-4.286-.853-1.093-1.763-2.208-2.575-3.096-.407-.444-.79-.832-1.133-1.136-.346-.304-.643-.524-.932-.635-.29-.109-.562-.157-.815-.157-.743 0-1.264.424-1.572.813-.312.393-.444.769-.451.787-.055.156.026.328.182.384.157.055.328-.028.383-.184" transform="translate(-182 -347)"/>
                        <path fill="#F2F2EF" d="M340.352 838.348L341.191 842.768 337.374 841.498 340.352 838.348M341.191 842.768L342.31 838.03 344.672 840.778 341.191 842.768" transform="translate(-182 -347)"/>
                        <path fill="#FFFFFE" d="M342.31 838.03L344.601 842.45 348.15 839.394 344.222 835.737 342.31 838.03" transform="translate(-182 -347)"/>
                        <path fill="#E29477" d="M305.114 863.966s-5.948 9.208-7.328 13.085c-.917 2.578 11.719 46.622 11.719 46.622l7.653-2.488-8.182-38.996 8.182-10.165-12.044-8.058" transform="translate(-182 -347)"/>
                        <path fill="#61FFCA" d="M328.366 856.44c-2.222 3.858-14.437 23.511-14.437 23.511l-14.935-10.356s12.752-24.23 14.905-27.145c2.152-2.916 10.01-6.08 10.01-6.08s9.928 10.579 4.457 20.07" transform="translate(-182 -347)"/>
                        <path fill="#E29477" d="M317.158 921.185s2.508.977 3.587 1.273c1.052.29 4.087 6.637 3.549 7.042-.538.405-3.01.432-3.55-2.018l-9.506 3.228s-2.212-1.34-1.733-7.037l7.653-2.488" transform="translate(-182 -347)"/>
                        <path fill="#321B18" d="M328.934 1065.154s2.136 2.73 9.614 2.884c5.731.116 9.669 5.803 6.59 6.315-1.404.234-29.644 0-29.644 0s-1.87-4.444 0-7.251l13.44-1.948" transform="translate(-182 -347)"/>
                        <path fill="#110E0D" d="M337.82 1067.888l-.006.01c-.042.075-.29.494-.825.888-.536.395-1.352.773-2.573.774-.25 0-.517-.016-.802-.051-1.6-.195-3.77-1.339-5.505-2.441-.87-.55-1.636-1.088-2.184-1.488-.274-.2-.494-.366-.644-.48l-.231-.18-.373.47c.005.004 1.342 1.066 3.111 2.185 1.774 1.118 3.96 2.3 5.752 2.529.309.038.6.056.876.056 1.438.002 2.431-.487 3.05-.984.62-.496.875-.991.888-1.017l-.535-.271M346.215 1072.883L315.025 1072.58 315.018 1073.18 346.21 1073.483" transform="translate(-182 -347)"/>
                        <path fill="#321B18" d="M366.163 1065.154s2.135 2.73 9.613 2.884c5.731.116 9.669 5.803 6.59 6.315-1.403.234-29.644 0-29.644 0s-1.87-4.444 0-7.251l13.441-1.948" transform="translate(-182 -347)"/>
                        <path fill="#110E0D" d="M375.047 1067.888l-.005.01c-.042.075-.29.494-.825.888-.535.395-1.351.773-2.572.774-.25 0-.517-.016-.803-.051-1.6-.195-3.77-1.339-5.505-2.441-.87-.55-1.636-1.088-2.184-1.488-.274-.2-.493-.366-.643-.48l-.232-.18-.373.47c.005.004 1.342 1.066 3.111 2.185 1.774 1.118 3.96 2.3 5.752 2.529.309.038.6.056.877.056 1.437.002 2.43-.487 3.05-.984.62-.496.874-.991.887-1.017l-.535-.271M383.443 1072.883L352.253 1072.58 352.247 1073.18 383.438 1073.483" transform="translate(-182 -347)"/>
                        <path fill="#635545" d="M313.092 1067.507L328.934 1065.154 329.157 1058.947 312.679 1061.453 313.092 1067.507M350.4 1067.507L366.163 1065.154 365.335 1058.947 349.363 1061.928 350.4 1067.507" transform="translate(-182 -347)"/>
                        <path fill="#110E0D" d="M333.051 972.474c0-.003.017-1.295.078-3.318.09-3.034.277-7.705.651-12.082.187-2.19.42-4.305.71-6.103.288-1.797.64-3.281 1.038-4.177 1.126-2.542 3.151-8.288 4.902-13.412 1.748-5.124 3.219-9.616 3.219-9.616l-.57-.187c-.001.003-.368 1.123-.953 2.885-1.756 5.282-5.486 16.343-7.147 20.087-.582 1.322-1.013 3.57-1.356 6.239-1.02 7.992-1.171 19.67-1.172 19.676l.6.008M324.377 844.598c2.05 3.192 2.685 6.628 2.685 9.464 0 1.414-.159 2.679-.375 3.682-.214 1.002-.496 1.752-.708 2.1-.484.798-3.561 5.788-6.517 10.575l-4.002 6.483-1.786 2.892.255.157.171-.246-2.13-1.476-.342.493 2.39 1.656.166-.268c0-.002 11.334-18.348 12.308-19.956.273-.454.554-1.236.782-2.284.225-1.045.387-2.35.388-3.808 0-2.924-.654-6.476-2.78-9.788l-.505.324M339.35 1009.015L344.82 1011.868 345.098 1011.336 339.627 1008.483M320.647 927.198L309.339 931.083 309.534 931.651 320.842 927.765M309.253 882.072L307.724 878.461 307.172 878.694 308.7 882.306" transform="translate(-182 -347)"/>
                        <path fill="#E29477" d="M403.738 875.19s4.782-3.934 5.739-4.532c.957-.598 8.011 2.06 7.413 3.242-.597 1.182-6.724.704-6.724.704s.866 6.14-5.232 7.05l-1.196-6.464" transform="translate(-182 -347)"/>
                        <path fill="#E29477" d="M415.742 873.289c-1.279.132-3.348 1.645-3.228 2.301.12.659 1.764.808 1.764.808s-1.894.448-1.77 1.046c.126.598 1.949.838 1.949.838s-2.055.418-1.955 1.195c.101.777 5.093.568 5.632 0 .538-.568-.12-.627-.24-1.195-.119-.568.42-1.854.27-2.243-.15-.389-.778-.807-.778-1.076 0-.27.39-1.256.24-1.495-.15-.24-.15-.358-1.884-.18" transform="translate(-182 -347)"/>
                        <path fill="#110E0D" d="M363.846 881.953L360.738 884.377 361.106 884.85 364.215 882.426" transform="translate(-182 -347)"/>
                        <path fill="#F6FBFA" d="M350.207 825.588c.034 2.09-.673 7.696-4.233 7.978h-.006c-.08.007-.151.013-.231.013-4.298.06-10.171-.6-10.59-5.293-.228-2.53 8.6-6.758 10.127-6.876 1.53-.113 4.641 2.466 4.876 3.522.028.131.046.354.057.656" transform="translate(-182 -347)"/>
                        <path fill="#7AC5B4" d="M350.207 825.588c.034 2.09-.673 7.696-4.233 7.978h-.006c-8.118-.63-9.907-3.798-9.802-5.341.1-1.543 8.17-5.936 9.414-6.032 1.189-.087 4.422 3.193 4.627 3.395" transform="translate(-182 -347)"/>
                        <path fill="#FFFFFE" d="M369.2 947.006L663.347 947.006 663.347 935.426 369.2 935.426z" transform="translate(-182 -347)"/>
                        <path fill="#CCD2E1" d="M656.361 1074.15L663.347 1074.15 649.678 947.006 642.691 947.006 656.361 1074.15M376.186 1074.15L369.2 1074.15 382.87 947.006 389.856 947.006 376.186 1074.15" transform="translate(-182 -347)"/>
                        <path fill="#CCD2E1" d="M381.995 955.135L382.87 947.006 649.678 947.006 650.552 955.135 381.995 955.135" transform="translate(-182 -347)"/>
                        <path fill="#D5DEE9" d="M549.088 931.52l-19.952-39.351h56.435l21.933 43.257H555.45c-2.688 0-5.147-1.51-6.362-3.907" transform="translate(-182 -347)"/>
                        <path fill="#8E9BAF" d="M603.992 928.5l-18.42-36.331h-4.382l19.953 39.35c1.215 2.398 3.674 3.907 6.361 3.907h47.186c1.08 0 1.954-.875 1.954-1.952 0-1.08-.874-1.955-1.954-1.955H608.91c-2.077 0-3.978-1.166-4.917-3.018" transform="translate(-182 -347)"/>
                        <path fill="#616773" d="M641.544 934.127h-26.133c-.365 0-.66-.295-.66-.66 0-.365.295-.66.66-.66h26.133c.365 0 .66.295.66.66 0 .365-.295.66-.66.66M645.973 933.467c0 .365-.296.66-.661.66-.365 0-.66-.295-.66-.66 0-.365.295-.66.66-.66.365 0 .66.295.66.66M648.498 933.467c0 .365-.296.66-.66.66-.365 0-.661-.295-.661-.66 0-.365.296-.66.66-.66.365 0 .66.295.66.66" transform="translate(-182 -347)"/>
                        <path fill="#37BC8F" d="M659.04 797.177c0 13.714-11.12 24.833-24.833 24.833-13.715 0-24.833-11.119-24.833-24.833 0-13.715 11.118-24.832 24.833-24.832 13.714 0 24.832 11.117 24.832 24.832" transform="translate(-182 -347)"/>
                        <path fill="#474A51" d="M633.807 779.468L633.807 797.358 643.907 806.284 644.437 805.685 634.607 796.997 634.607 779.468 633.807 779.468M559.52 747.41L559.52 741.056 545.205 741.056 545.205 747.41 520.379 760.284 552.362 760.589 584.347 760.284 559.52 747.41M550.97 741.056L553.756 741.056 553.756 704 550.97 704z" transform="translate(-182 -347)"/>
                        <path fill="#3C9" d="M216 1074.857L816 1074.857 816 1074.057 216 1074.057z" transform="translate(-182 -347)"/>
                    </g>
                </g>
            </g>
        </g>
        <path fill="#C6FFEC" fill-opacity=".6" fill-rule="nonzero" d="M819.308 132.938c11.358 15.584 7.61 37.83 1.045 55.552-2.2 5.933-4.697 12.208-3.557 18.663 1.393 7.89 7.937 13.803 14.74 17.023 12.402 5.869 27.053 4.932 38.146-2.463 9.574-6.382 16.313-16.989 26.072-23.066 16.333-10.168 37.537-5.625 55.715 2.138 12.86 5.491 26.948 12.564 39.48 7.493 8.82-3.568 14.758-12.651 17.883-22.361 1.508-4.688 2.564-9.777 5.57-13.447 1.787-2.181 4.148-3.701 6.576-4.972 22.161-11.604 50.667-4.352 72.152-17.299 14.506-8.744 23.534-25.712 27.285-43.55 3.751-17.84 2.823-36.67 1.329-55.179-1.062-13.153-2.742-27.209-10.65-37.545-8.364-10.931-22.382-15.277-34.917-13.563-12.536 1.715-23.772 8.686-33.606 16.983-12.292 10.371-23.609 23.388-38.906 27.322-10.418 2.68-21.485.784-32.315-.055-18.103-1.398-36.141.212-54.07 2.03-17.163 1.742-34.444 3.685-50.699 9.392-11.503 4.038-20.62 11.67-31.45 16.887-7.059 3.4-14.825 4.189-21.468 8.581-8.198 5.41-15.608 14.996-13.203 26.498 2.272 10.931 12.82 16.667 18.848 24.938zM1165.116 1287.002c-3.473-27.95 17.066-53.71 38-71.7 7.01-6.022 14.644-12.269 17.758-21.321 3.808-11.066-.366-23.252-6.776-32.182-11.686-16.278-31.063-25.454-50.47-23.864-16.748 1.375-32.866 10.15-49.636 11.004-28.062 1.424-51.93-19.392-69.654-42.18-12.539-16.12-25.526-35.13-45.125-37.526-13.792-1.687-27.81 5.711-38.675 15.902-5.247 4.92-10.199 10.672-16.636 13.232-3.828 1.521-7.92 1.791-11.922 1.695-36.524-.869-67.801-30.317-104.414-28.99-24.72.898-48.266 16.18-65.688 36.31-17.422 20.131-29.57 44.842-40.767 69.542-7.957 17.554-15.763 36.698-12.98 55.5 2.943 19.886 17.772 35.362 34.999 42.048 17.226 6.686 36.514 5.737 54.952 2.102 23.044-4.545 46.717-13.16 69.043-7.353 15.205 3.952 27.999 14.212 41.239 22.951 22.133 14.604 46.315 25.32 70.505 35.69 23.155 9.93 46.606 19.683 71.41 23.903 17.552 2.986 34.604-.308 52.13.698 11.424.654 21.903 5.145 33.5 4.238 14.302-1.106 30.554-8.103 35.626-24.5 4.838-15.57-4.575-30.366-6.419-45.2z" transform="translate(0 -109)"/>
    </g>
</svg>
