<?xml version="1.0" encoding="UTF-8"?>
<svg width="430px" height="84px" viewBox="0 0 430 84" version="1.1" xmlns="http://www.w3.org/2000/svg" xmlns:xlink="http://www.w3.org/1999/xlink">
    <title>0922E689-CD51-4C22-8239-CF87D05C1F92</title>
    <g id="final" stroke="none" stroke-width="1" fill="none" fill-rule="evenodd">
        <g id="Login-v2" transform="translate(-145.000000, -145.000000)" fill="#33CC99">
            <g id="Logo" transform="translate(145.000000, 145.000000)">
                <text id="FootonStep-Copy-2" font-family="AppleGothic" font-size="50" font-weight="normal" letter-spacing="-0.5">
                    <tspan x="96" y="68">FOOTONSTEP</tspan>
                </text>
                <g id="logo">
                    <path d="M124.890406,19.2072508 L124.890406,22.4072508 L96.8904062,22.4072508 C93.8620448,22.4072508 91.3951272,24.8110776 91.2936534,27.814731 L91.2904062,28.0072508 L91.2904062,36.8072508 C91.2904062,40.2751823 88.532136,43.0988851 85.0897496,43.2042054 L84.8904062,43.2072508 L52.796376,43.2065213 C51.1630045,43.2064842 49.7917543,44.4366005 49.6150783,46.0603887 L48.5189556,56.1345994 L48.4982247,56.2752391 C48.0084078,59.3290025 45.1357678,61.4074912 42.0820069,60.9176712 L35.4404485,59.8614892 C23.8023194,58.0288279 16.623766,57.0068514 13.9676918,56.802538 C11.2936065,56.5968392 9.4270222,57.4814876 8.13748355,59.5568382 L8.0904,59.6336561 L8.09040618,83.2072508 L4.89040618,83.2072508 L4.89040618,58.7992604 L5.08577327,58.4410874 C6.99127867,54.9476609 10.1263941,53.2976001 14.2131206,53.6119637 L14.8438028,53.6671031 C18.5874076,54.0266306 27.8070963,55.3871043 42.5888038,57.7580578 C43.8975584,57.9679806 45.1286894,57.0772001 45.338611,55.768444 L45.3548475,55.6476895 L46.7446549,42.8614615 C46.9211669,41.2375506 48.2924415,40.0072508 49.9259172,40.0072508 L84.8904062,40.0072508 C86.6041625,40.0072508 88.0032693,38.6600761 88.0864899,36.9669631 L88.0904062,36.8072508 L88.0904062,28.0072508 C88.0904062,23.2242896 91.906217,19.3325587 96.6596802,19.2102168 L96.8904062,19.2072508 L124.890406,19.2072508 Z M3.996549,27.4195899 C7.55611564,25.1953259 12.0550345,25.9740552 14.0451655,29.1589306 C16.0352966,32.343806 14.7630176,36.72878 11.203451,38.9530441 C7.64388436,41.1773082 3.1449655,40.3985788 1.15483447,37.2137034 C-0.835296563,34.028828 0.436982371,29.643854 3.996549,27.4195899 Z M41.2869552,13.3011831 C44.8465218,11.0769191 49.3454407,11.8556484 51.3355717,15.0405238 C53.3257027,18.2253992 52.0534238,22.6103732 48.4938572,24.8346373 C44.9342905,27.0589014 40.4353717,26.280172 38.4452407,23.0952966 C36.4551096,19.9104212 37.7273886,15.5254472 41.2869552,13.3011831 Z M80.0869552,1.76772904 C83.6465218,-0.456535054 88.1454407,0.322194278 90.1355717,3.50706969 C92.1257027,6.69194509 90.8534238,11.0769191 87.2938572,13.3011831 C83.7342905,15.5254472 79.2353717,14.7467179 77.2452407,11.5618425 C75.2551096,8.37696709 76.5273886,3.99199314 80.0869552,1.76772904 Z" id="Combined-Shape"></path>
                </g>
            </g>
        </g>
    </g>
</svg>